<?xml version="1.0" encoding="UTF-8"?>
<svg width="400" height="400" viewBox="0 0 400 400" fill="none" xmlns="http://www.w3.org/2000/svg">
  <!-- Steam/Vapor Lines -->
  <path d="M165 160C165 160 155 130 165 110C175 90 185 100 180 120C175 140 175 160 175 160" stroke="#4A7C59" stroke-width="8" stroke-linecap="round"/>
  <path d="M200 140C200 140 190 110 200 90C210 70 220 80 215 100C210 120 210 140 210 140" stroke="#4A7C59" stroke-width="8" stroke-linecap="round"/>
  <path d="M235 160C235 160 225 130 235 110C245 90 255 100 250 120C245 140 245 160 245 160" stroke="#4A7C59" stroke-width="8" stroke-linecap="round"/>
  
  <!-- Main Container -->
  <rect x="100" y="180" width="200" height="140" stroke="#4A7C59" stroke-width="8" fill="none"/>
  
  <!-- Internal Dividers -->
  <rect x="100" y="240" width="140" height="40" stroke="#4A7C59" stroke-width="8" fill="none"/>
  <rect x="240" y="240" width="60" height="40" stroke="#4A7C59" stroke-width="8" fill="none"/>
</svg> 